<svg xmlns="http://www.w3.org/2000/svg" width="800" height="450"><path fill="#94351f" stroke="#94351f" stroke-width="1.51" d="m773 254 74 89 22-67Z"/><path fill="#94351f" stroke="#94351f" stroke-width="1.51" d="m773 254-1 84 75 5Z"/><path fill="#973821" stroke="#973821" stroke-width="1.51" d="m830 232-57 22 96 22Z"/><path fill="#8f321c" stroke="#8f321c" stroke-width="1.51" d="m772 338 60 49 15-44Z"/><path fill="#a9452b" stroke="#a9452b" stroke-width="1.51" d="m736 28 33 114 38-114Z"/><path fill="#862b17" stroke="#862b17" stroke-width="1.51" d="m748 442-8 100 71 8Z"/><path fill="#872c18" stroke="#872c18" stroke-width="1.51" d="m748 442 63 108 14-100Z"/><path fill="#8b2f1a" stroke="#8b2f1a" stroke-width="1.51" d="m749 406-1 36 77 8Z"/><path fill="#a54229" stroke="#a54229" stroke-width="1.51" d="m807 28-38 114 57-20Z"/><path fill="#9d3d24" stroke="#9d3d24" stroke-width="1.51" d="m729 174 44 80 56-84Z"/><path fill="#a03f26" stroke="#a03f26" stroke-width="1.51" d="m769 142-40 32 100-4Z"/><path fill="#a03f26" stroke="#a03f26" stroke-width="1.51" d="m826 122-57 20 60 28Z"/><path fill="#9a3a22" stroke="#9a3a22" stroke-width="1.51" d="m829 170-56 84 57-22Z"/><path fill="#8b2f1a" stroke="#8b2f1a" stroke-width="1.51" d="m749 406 76 44 7-63Z"/><path fill="#8f321c" stroke="#8f321c" stroke-width="1.51" d="m772 338-23 68 83-19Z"/><path fill="#ac492d" stroke="#ac492d" stroke-width="1.51" d="M799-19 746-6l61 34Z"/><path fill="#a9462b" stroke="#a9462b" stroke-width="1.51" d="m736 28-44 43 77 71Z"/><path fill="#ac482d" stroke="#ac482d" stroke-width="1.51" d="m746-6-10 34h71Z"/><path fill="#8a2e19" stroke="#8a2e19" stroke-width="1.51" d="m694 453 46 89 8-100Z"/><path fill="#a9452b" stroke="#a9452b" stroke-width="1.51" d="m692 71-19 30 96 41Z"/><path fill="#94361f" stroke="#94361f" stroke-width="1.51" d="m657 310 92 96 23-68Z"/><path fill="#9a3a22" stroke="#9a3a22" stroke-width="1.51" d="m683 246-26 64 115 28Z"/><path fill="#9f3e25" stroke="#9f3e25" stroke-width="1.51" d="m729 174-37 39 81 41Z"/><path fill="#993922" stroke="#993922" stroke-width="1.51" d="m683 246 89 92 1-84Z"/><path fill="#9d3d24" stroke="#9d3d24" stroke-width="1.51" d="m692 213-9 33 90 8Z"/><path fill="#a54229" stroke="#a54229" stroke-width="1.51" d="m673 101 56 73 40-32Z"/><path fill="#93351f" stroke="#93351f" stroke-width="1.51" d="m657 310 36 116 56-20Z"/><path fill="#8e311c" stroke="#8e311c" stroke-width="1.51" d="m693 426 55 16 1-36Z"/><path fill="#8f311c" stroke="#8f311c" stroke-width="1.51" d="m693 426 1 27 54-11Z"/><path fill="#b04b2f" stroke="#b04b2f" stroke-width="1.51" d="m675-19 61 47 10-34Z"/><path fill="#af4a2f" stroke="#af4a2f" stroke-width="1.51" d="m675-19 17 90 44-43Z"/><path fill="#a44228" stroke="#a44228" stroke-width="1.51" d="m673 101 19 112 37-39Z"/><path fill="#a8452a" stroke="#a8452a" stroke-width="1.51" d="m673 101-50 9 69 103Z"/><path fill="#a7442a" stroke="#a7442a" stroke-width="1.51" d="m623 110-25 83 94 20Z"/><path fill="#b14c30" stroke="#b14c30" stroke-width="1.51" d="m675-19-67 47 84 43Z"/><path fill="#973821" stroke="#973821" stroke-width="1.51" d="m657 310-51 26 87 90Z"/><path fill="#963720" stroke="#963720" stroke-width="1.51" d="m606 336-9 81 96 9Z"/><path fill="#91331d" stroke="#91331d" stroke-width="1.51" d="m693 426-96-9 97 36Z"/><path fill="#92341d" stroke="#92341d" stroke-width="1.51" d="m597 417-7 74 104-38Z"/><path fill="#a14026" stroke="#a14026" stroke-width="1.51" d="m598 240 85 6 9-33Z"/><path fill="#a44228" stroke="#a44228" stroke-width="1.51" d="M598 193v47l94-27Z"/><path fill="#ae4a2e" stroke="#ae4a2e" stroke-width="1.51" d="m608 28 65 73 19-30Z"/><path fill="#af4a2e" stroke="#af4a2e" stroke-width="1.51" d="m608 28 15 82 50-9Z"/><path fill="#9f3e25" stroke="#9f3e25" stroke-width="1.51" d="m598 240 59 70 26-64Z"/><path fill="#b54f32" stroke="#b54f32" stroke-width="1.51" d="m590-4 18 32 67-47Z"/><path fill="#9e3d24" stroke="#9e3d24" stroke-width="1.51" d="m598 240 8 96 51-26Z"/><path fill="#a24027" stroke="#a24027" stroke-width="1.51" d="m566 234-5 106 37-100Z"/><path fill="#9f3e25" stroke="#9f3e25" stroke-width="1.51" d="m598 240-37 100 45-4Z"/><path fill="#9a3a22" stroke="#9a3a22" stroke-width="1.51" d="m561 340 36 77 9-81Z"/><path fill="#ad492d" stroke="#ad492d" stroke-width="1.51" d="m536 130 18 32 69-52Z"/><path fill="#b24c30" stroke="#b24c30" stroke-width="1.51" d="m608 28-69 35 84 47Z"/><path fill="#b04b2f" stroke="#b04b2f" stroke-width="1.51" d="m539 63-3 67 87-20Z"/><path fill="#aa472c" stroke="#aa472c" stroke-width="1.51" d="m554 162 44 31 25-83Z"/><path fill="#94361f" stroke="#94361f" stroke-width="1.51" d="m560 420 30 71 7-74Z"/><path fill="#93351e" stroke="#93351e" stroke-width="1.51" d="m560 420-1 75 31-4Z"/><path fill="#993a22" stroke="#993a22" stroke-width="1.51" d="m561 340-1 80 37-3Z"/><path fill="#a64329" stroke="#a64329" stroke-width="1.51" d="m566 234 32 6v-47Z"/><path fill="#b54f32" stroke="#b54f32" stroke-width="1.51" d="m590-4-51 67 69-35Z"/><path fill="#b85133" stroke="#b85133" stroke-width="1.51" d="m532-12 7 75 51-67Z"/><path fill="#a8452a" stroke="#a8452a" stroke-width="1.51" d="m554 162 12 72 32-41Z"/><path fill="#a34128" stroke="#a34128" stroke-width="1.51" d="m457 304 104 36 5-106Z"/><path fill="#973821" stroke="#973821" stroke-width="1.51" d="m477 407-23 86 105 2Z"/><path fill="#973821" stroke="#973821" stroke-width="1.51" d="m477 407 82 88 1-75Z"/><path fill="#9b3c23" stroke="#9b3c23" stroke-width="1.51" d="m477 407 83 13 1-80Z"/><path fill="#ab472c" stroke="#ab472c" stroke-width="1.51" d="m554 162-83 20 95 52Z"/><path fill="#aa472c" stroke="#aa472c" stroke-width="1.51" d="m471 182-13 76 108-24Z"/><path fill="#a7442a" stroke="#a7442a" stroke-width="1.51" d="m458 258-1 46 109-70Z"/><path fill="#a03f26" stroke="#a03f26" stroke-width="1.51" d="m457 304 20 103 84-67Z"/><path fill="#ae4a2e" stroke="#ae4a2e" stroke-width="1.51" d="m536 130-65 52 83-20Z"/><path fill="#c05738" stroke="#c05738" stroke-width="1.51" d="M457-91 446 3l86-15Z"/><path fill="#bc5436" stroke="#bc5436" stroke-width="1.51" d="m446 3 4 52 82-67Z"/><path fill="#b95234" stroke="#b95234" stroke-width="1.51" d="m532-12-82 67 89 8Z"/><path fill="#b34d31" stroke="#b34d31" stroke-width="1.51" d="m448 124 88 6 3-67Z"/><path fill="#b65033" stroke="#b65033" stroke-width="1.51" d="m450 55-2 69 91-61Z"/><path fill="#b14c2f" stroke="#b14c2f" stroke-width="1.51" d="m448 124 23 58 65-52Z"/><path fill="#c2593a" stroke="#c2593a" stroke-width="1.51" d="m386-15 60 18 11-94Z"/><path fill="#a44228" stroke="#a44228" stroke-width="1.51" d="m396 338 25 63 36-97Z"/><path fill="#ae4a2e" stroke="#ae4a2e" stroke-width="1.51" d="m375 205 83 53 13-76Z"/><path fill="#a13f27" stroke="#a13f27" stroke-width="1.51" d="m457 304-36 97 56 6Z"/><path fill="#9c3b24" stroke="#9c3b24" stroke-width="1.51" d="m421 401 33 92 23-86Z"/><path fill="#9b3b23" stroke="#9b3b23" stroke-width="1.51" d="m421 401-30 94 63-2Z"/><path fill="#b24c30" stroke="#b24c30" stroke-width="1.51" d="m448 124-73 81 96-23Z"/><path fill="#b54f32" stroke="#b54f32" stroke-width="1.51" d="m398 113-23 92 73-81Z"/><path fill="#b85134" stroke="#b85134" stroke-width="1.51" d="m398 113 50 11 2-69Z"/><path fill="#ba5335" stroke="#ba5335" stroke-width="1.51" d="m384 75 14 38 52-58Z"/><path fill="#a8452b" stroke="#a8452b" stroke-width="1.51" d="m404 282 53 22 1-46Z"/><path fill="#ad492d" stroke="#ad492d" stroke-width="1.51" d="m375 205 29 77 54-24Z"/><path fill="#a7442a" stroke="#a7442a" stroke-width="1.51" d="m404 282-8 56 61-34Z"/><path fill="#bf5738" stroke="#bf5738" stroke-width="1.51" d="m386-15-2 90 62-72Z"/><path fill="#bc5436" stroke="#bc5436" stroke-width="1.51" d="m446 3-62 72 66-20Z"/><path fill="#9e3d25" stroke="#9e3d25" stroke-width="1.51" d="m320 469 71 26 30-94Z"/><path fill="#a24027" stroke="#a24027" stroke-width="1.51" d="m321 396-1 73 101-68Z"/><path fill="#a44228" stroke="#a44228" stroke-width="1.51" d="m396 338-75 58 100 5Z"/><path fill="#bf5738" stroke="#bf5738" stroke-width="1.51" d="m341 65 43 10 2-90Z"/><path fill="#c2593a" stroke="#c2593a" stroke-width="1.51" d="m332-2 9 67 45-80Z"/><path fill="#b75033" stroke="#b75033" stroke-width="1.51" d="m317 129 58 76 23-92Z"/><path fill="#b04b2f" stroke="#b04b2f" stroke-width="1.51" d="m375 205-68 28 97 49Z"/><path fill="#af4a2e" stroke="#af4a2e" stroke-width="1.51" d="m307 233-23 80 120-31Z"/><path fill="#a9462b" stroke="#a9462b" stroke-width="1.51" d="m305 344 91-6 8-56Z"/><path fill="#ac482d" stroke="#ac482d" stroke-width="1.51" d="m284 313 21 31 99-62Z"/><path fill="#b34d31" stroke="#b34d31" stroke-width="1.51" d="m316 216-9 17 68-28Z"/><path fill="#a8442a" stroke="#a8442a" stroke-width="1.51" d="m305 344 16 52 75-58Z"/><path fill="#ba5335" stroke="#ba5335" stroke-width="1.51" d="m384 75-67 54 81-16Z"/><path fill="#bd5536" stroke="#bd5536" stroke-width="1.51" d="m341 65-24 64 67-54Z"/><path fill="#b65033" stroke="#b65033" stroke-width="1.51" d="m317 129-1 87 59-11Z"/><path fill="#b14c30" stroke="#b14c30" stroke-width="1.51" d="m273 269 11 44 23-80Z"/><path fill="#b85033" stroke="#b85033" stroke-width="1.51" d="m278 212 38 4 1-87Z"/><path fill="#a44228" stroke="#a44228" stroke-width="1.51" d="m269 426 51 43 1-73Z"/><path fill="#c65c3c" stroke="#c65c3c" stroke-width="1.51" d="m255-1-9 49 86-50Z"/><path fill="#c35a3a" stroke="#c35a3a" stroke-width="1.51" d="m332-2-86 50 95 17Z"/><path fill="#c05738" stroke="#c05738" stroke-width="1.51" d="m246 48 71 81 24-64Z"/><path fill="#bb5335" stroke="#bb5335" stroke-width="1.51" d="m247 141 31 71 39-83Z"/><path fill="#bf5738" stroke="#bf5738" stroke-width="1.51" d="m246 48 1 93 70-12Z"/><path fill="#a34128" stroke="#a34128" stroke-width="1.51" d="m269 426-1 47 52-4Z"/><path fill="#a8452a" stroke="#a8452a" stroke-width="1.51" d="m305 344-36 82 52-30Z"/><path fill="#b54f32" stroke="#b54f32" stroke-width="1.51" d="m278 212 29 21 9-17Z"/><path fill="#ab472c" stroke="#ab472c" stroke-width="1.51" d="m208 351 61 75 36-82Z"/><path fill="#b44e31" stroke="#b44e31" stroke-width="1.51" d="m278 212-5 57 34-36Z"/><path fill="#ae492e" stroke="#ae492e" stroke-width="1.51" d="m284 313-76 38 97-7Z"/><path fill="#ab472c" stroke="#ab472c" stroke-width="1.51" d="m208 351-2 75h63Z"/><path fill="#bc5436" stroke="#bc5436" stroke-width="1.51" d="m247 141-35 22 66 49Z"/><path fill="#b65032" stroke="#b65032" stroke-width="1.51" d="m180 242 93 27 5-57Z"/><path fill="#b04b2f" stroke="#b04b2f" stroke-width="1.51" d="m273 269-65 82 76-38Z"/><path fill="#ba5335" stroke="#ba5335" stroke-width="1.51" d="m212 163-32 79 98-30Z"/><path fill="#a64329" stroke="#a64329" stroke-width="1.51" d="m206 426 62 47 1-47Z"/><path fill="#b34e31" stroke="#b34e31" stroke-width="1.51" d="m180 242 28 109 65-82Z"/><path fill="#c2593a" stroke="#c2593a" stroke-width="1.51" d="m246 48-77 79 78 14Z"/><path fill="#a7442a" stroke="#a7442a" stroke-width="1.51" d="m206 426-28 43 90 4Z"/><path fill="#c95e3d" stroke="#c95e3d" stroke-width="1.51" d="m180 22 66 26 9-49Z"/><path fill="#cc6040" stroke="#cc6040" stroke-width="1.51" d="m186-47-6 69 75-23Z"/><path fill="#c75c3c" stroke="#c75c3c" stroke-width="1.51" d="m180 22-11 105 77-79Z"/><path fill="#c05738" stroke="#c05738" stroke-width="1.51" d="m169 127 43 36 35-22Z"/><path fill="#b85134" stroke="#b85134" stroke-width="1.51" d="m107 279 17 55 56-92Z"/><path fill="#c05738" stroke="#c05738" stroke-width="1.51" d="m169 127-77 49 88 66Z"/><path fill="#b54e32" stroke="#b54e32" stroke-width="1.51" d="m180 242-56 92 84 17Z"/><path fill="#ae492e" stroke="#ae492e" stroke-width="1.51" d="m136 381 70 45 2-75Z"/><path fill="#be5637" stroke="#be5637" stroke-width="1.51" d="m169 127 11 115 32-79Z"/><path fill="#b24c30" stroke="#b24c30" stroke-width="1.51" d="m124 334 12 47 72-30Z"/><path fill="#c45a3b" stroke="#c45a3b" stroke-width="1.51" d="m125 129-33 47 77-49Z"/><path fill="#ab472d" stroke="#ab472d" stroke-width="1.51" d="m136 381 42 88 28-43Z"/><path fill="#c75d3d" stroke="#c75d3d" stroke-width="1.51" d="m93 41 32 88 44-2Z"/><path fill="#ac482d" stroke="#ac482d" stroke-width="1.51" d="m136 381-28 87 70 1Z"/><path fill="#c95f3e" stroke="#c95f3e" stroke-width="1.51" d="m93 41 76 86 11-105Z"/><path fill="#d06341" stroke="#d06341" stroke-width="1.51" d="m124-37 56 59 6-69Z"/><path fill="#cf6241" stroke="#cf6241" stroke-width="1.51" d="M124-37 93 41l87-19Z"/><path fill="#bd5537" stroke="#bd5537" stroke-width="1.51" d="m92 176 15 103 73-37Z"/><path fill="#c25939" stroke="#c25939" stroke-width="1.51" d="m45 194 18 84 29-102Z"/><path fill="#be5637" stroke="#be5637" stroke-width="1.51" d="M92 176 63 278l44 1Z"/><path fill="#b54f33" stroke="#b54f33" stroke-width="1.51" d="m55 343 11 56 58-65Z"/><path fill="#cb5f3e" stroke="#cb5f3e" stroke-width="1.51" d="M93 41 49 97l76 32Z"/><path fill="#b34d31" stroke="#b34d31" stroke-width="1.51" d="m124 334-58 65 70-18Z"/><path fill="#b04b2f" stroke="#b04b2f" stroke-width="1.51" d="m66 399 42 69 28-87Z"/><path fill="#ba5335" stroke="#ba5335" stroke-width="1.51" d="m63 278-8 65 52-64Z"/><path fill="#b85134" stroke="#b85134" stroke-width="1.51" d="m107 279-52 64 69-9Z"/><path fill="#d36644" stroke="#d36644" stroke-width="1.51" d="m24-29 69 70 31-78Z"/><path fill="#c75d3c" stroke="#c75d3c" stroke-width="1.51" d="m49 97 43 79 33-47Z"/><path fill="#ce6241" stroke="#ce6241" stroke-width="1.51" d="m50 58-1 39 44-56Z"/><path fill="#ae4a2e" stroke="#ae4a2e" stroke-width="1.51" d="m66 399-40 97 82-28Z"/><path fill="#c75c3c" stroke="#c75c3c" stroke-width="1.51" d="m49 97-4 97 47-18Z"/><path fill="#d26543" stroke="#d26543" stroke-width="1.51" d="m24-29 26 87 43-17Z"/><path fill="#ca5f3e" stroke="#ca5f3e" stroke-width="1.51" d="m-8 99 53 95 4-97Z"/><path fill="#d46644" stroke="#d46644" stroke-width="1.51" d="m24-29-48 72 74 15Z"/><path fill="#bd5536" stroke="#bd5536" stroke-width="1.51" d="m6 267 49 76 8-65Z"/><path fill="#c15839" stroke="#c15839" stroke-width="1.51" d="M45 194 6 267l57 11Z"/><path fill="#b64f32" stroke="#b64f32" stroke-width="1.51" d="m55 343-63 75 74-19Z"/><path fill="#b24d30" stroke="#b24d30" stroke-width="1.51" d="m-8 418 34 78 40-97Z"/><path fill="#ca5f3e" stroke="#ca5f3e" stroke-width="1.51" d="m-8 99-34 75 87 20Z"/><path fill="#ce6241" stroke="#ce6241" stroke-width="1.51" d="m-8 99 57-2 1-39Z"/><path fill="#be5537" stroke="#be5537" stroke-width="1.51" d="m6 267-51 59 100 17Z"/><path fill="#ba5235" stroke="#ba5235" stroke-width="1.51" d="m-45 326 37 92 63-75Z"/><path fill="#d16442" stroke="#d16442" stroke-width="1.51" d="m-24 43 16 56 58-41Z"/><path fill="#c55b3c" stroke="#c55b3c" stroke-width="1.51" d="m-42 174 48 93 39-73Z"/><path fill="#b24d30" stroke="#b24d30" stroke-width="1.51" d="m-8 418-36 62 70 16Z"/><path fill="#d86947" stroke="#d86947" stroke-width="1.51" d="m-31-42 7 85 48-72Z"/><path fill="#c75c3c" stroke="#c75c3c" stroke-width="1.51" d="m-42 174-72 85 120 8Z"/><path fill="#c45a3b" stroke="#c45a3b" stroke-width="1.51" d="m-114 259 48 44 72-36Z"/><path fill="#c15839" stroke="#c15839" stroke-width="1.51" d="m-66 303 21 23 51-59Z"/></svg>